<svg width="208" height="97" viewBox="0 0 208 97" fill="none" xmlns="http://www.w3.org/2000/svg">
<path d="M61.4992 32.8313C61.4992 48.7638 48.6182 61.6627 32.7496 61.6627C16.881 61.6627 4 48.7638 4 32.8313C4 16.8988 16.881 4 32.7496 4C48.6182 4 61.4992 16.8988 61.4992 32.8313Z" stroke="white" stroke-width="8"/>
<path d="M97.2841 63.5807C97.2841 79.5132 84.4031 92.412 68.5345 92.412C52.6659 92.412 39.7849 79.5132 39.7849 63.5807C39.7849 47.6482 52.6659 34.7493 68.5345 34.7493C84.4031 34.7493 97.2841 47.6482 97.2841 63.5807Z" stroke="white" stroke-width="8"/>
<path d="M132.75 32.8313C132.75 48.7638 119.869 61.6627 104 61.6627C88.1314 61.6627 75.2504 48.7638 75.2504 32.8313C75.2504 16.8988 88.1314 4 104 4C119.869 4 132.75 16.8988 132.75 32.8313Z" stroke="white" stroke-width="8"/>
<path d="M168.535 63.5807C168.535 79.5132 155.654 92.412 139.785 92.412C123.916 92.412 111.035 79.5132 111.035 63.5807C111.035 47.6482 123.916 34.7493 139.785 34.7493C155.654 34.7493 168.535 47.6482 168.535 63.5807Z" stroke="white" stroke-width="8"/>
<path d="M204 32.8313C204 48.7638 191.119 61.6627 175.25 61.6627C159.382 61.6627 146.501 48.7638 146.501 32.8313C146.501 16.8988 159.382 4 175.25 4C191.119 4 204 16.8988 204 32.8313Z" stroke="white" stroke-width="8"/>
</svg>
